# This file uses centimeters as units for non-parametric coordinates.

g default
v -4.879330 0.000000 0.000000
v 3.819639 0.000000 0.000000
v -4.879330 1.038193 0.000000
v 3.819639 0.475233 0.000000
v 2.291784 0.475233 -0.020385
v 2.291784 0.000000 0.000000
v 0.763928 0.475233 -0.020385
v 0.763928 0.000000 0.000000
v -1.823619 0.475234 -0.067446
v -1.823619 0.000000 0.000000
v -3.351474 1.038192 -0.067446
v -3.351474 0.000000 0.000000
v -5.565467 5.840362 0.000000
v -4.083777 6.213109 0.000000
v 3.061101 5.086324 0.000000
v 4.547428 4.732524 0.000000
v 0.763928 5.429564 -0.020385
v 2.291784 5.429564 -0.020385
v -2.089463 6.026735 0.000000
v 0.763928 6.026735 0.000000
v -3.912781 5.555773 -0.087399
v -1.782842 5.555773 -0.087399
v -5.359303 5.010622 0.000000
v -3.884253 5.366007 0.000000
v -5.170243 4.090215 0.000000
v -3.681991 4.356753 0.000000
v -5.041266 3.199176 0.000000
v -3.539813 3.376868 0.000000
v -4.944085 2.250121 0.000000
v -3.429430 2.338968 0.000000
v 2.858927 4.164104 0.000000
v 4.353560 3.881065 0.000000
v 2.688326 3.241887 0.000000
v 4.191264 3.029607 0.000000
v 2.533249 2.319670 0.000000
v 4.044493 2.178149 0.000000
v 2.413054 1.397451 0.000000
v 3.932604 1.326691 0.000000
v -3.850097 4.814766 -0.087399
v -1.720157 4.539665 -0.087400
v -3.787412 4.073759 -0.087400
v -1.657472 3.523557 -0.087400
v -3.724728 3.332753 -0.087400
v -1.594787 2.507450 -0.087400
v -3.662043 2.591745 -0.087400
v -1.532102 1.491341 -0.087400
v -1.912022 4.916436 -0.013489
v 0.893203 4.916436 0.000000
v -1.770502 3.806135 -0.026979
v 0.928083 3.806134 0.000000
v -1.717313 2.695835 -0.040468
v 0.928083 2.695834 0.000000
v -1.770398 1.585534 -0.053957
v 0.893203 1.585534 0.000000
v 2.291784 4.438698 -0.020385
v 0.763928 4.438698 -0.020385
v 2.291784 3.447832 -0.020385
v 0.763928 3.447832 -0.020385
v 2.291784 2.456965 -0.020385
v 0.763928 2.456965 -0.020385
v 2.291784 1.466100 -0.020385
v 0.763928 1.466100 -0.020385
vt 0.836955 0.000000
vt 1.000000 0.000000
vt 1.000000 0.051413
vt 0.836955 0.051413
vt 0.297445 0.000000
vt 0.671663 0.051413
vt 0.671663 0.000000
vt 0.000000 0.051413
vt 0.460239 0.000000
vt 0.460239 0.081865
vt 0.297445 0.000000
vt 0.297445 0.112317
vt 0.297445 0.561301
vt 0.460239 0.561301
vt 0.460239 0.652006
vt 0.297445 0.652006
vt 0.836955 0.435186
vt 1.000000 0.435186
vt 1.000000 0.531129
vt 0.836955 0.531129
vt 0.836955 0.158611
vt 0.671663 0.158611
vt 0.000000 0.531887
vt 0.297445 0.531887
vt 0.297445 0.652006
vt 0.000000 0.652006
vt 0.460239 0.506007
vt 0.671663 0.506007
vt 0.671663 0.601054
vt 0.460239 0.601054
vt 0.297445 0.456920
vt 0.460239 0.456920
vt 0.297445 0.355716
vt 0.460239 0.355716
vt 0.297445 0.248237
vt 0.460239 0.248237
vt 0.836955 0.339243
vt 1.000000 0.339243
vt 0.836955 0.243299
vt 1.000000 0.243299
vt 0.836955 0.147356
vt 1.000000 0.147356
vt 0.460239 0.410960
vt 0.671663 0.410960
vt 0.460239 0.315913
vt 0.671663 0.315913
vt 0.460239 0.220865
vt 0.671663 0.220865
vt 0.000000 0.411769
vt 0.297445 0.411769
vt 0.000000 0.291650
vt 0.297445 0.291650
vt 0.000000 0.171532
vt 0.297445 0.171532
vt 0.671663 0.480203
vt 0.836955 0.480203
vt 0.836955 0.587400
vt 0.671663 0.587400
vt 0.671663 0.373006
vt 0.836955 0.373006
vt 0.671663 0.265808
vt 0.836955 0.265808
vt 0.460239 0.112317
vt 0.460239 0.000000
vt 0.671663 0.081865
vt 0.000000 0.000000
vt 0.297445 0.051413
vt 0.671663 0.000000
vt 0.836955 0.051413
vt 0.836955 0.000000
vn -0.003334 0.032155 0.999477
vn -0.006669 0.021442 0.999748
vn -0.006848 0.000015 0.999977
vn -0.003198 0.007977 0.999963
vn -0.005702 0.073823 0.997255
vn -0.010817 0.015453 0.999822
vn 0.003257 0.090447 0.995896
vn -0.003441 0.030582 0.999526
vn 0.019655 0.056264 0.998223
vn 0.015263 0.017864 0.999724
vn 0.022055 0.032457 0.999230
vn 0.022534 0.000272 0.999746
vn 0.000000 0.000000 1.000000
vn 0.000000 0.000000 1.000000
vn 0.000000 0.000000 1.000000
vn 0.000000 0.000000 1.000000
vn 0.000000 0.000000 1.000000
vn 0.000000 0.000000 1.000000
vn 0.000000 0.000000 1.000000
vn 0.000000 0.000000 1.000000
vn 0.000000 -0.000000 1.000000
vn 0.000000 -0.000000 1.000000
vn -0.004611 -0.006518 0.999968
vn -0.004953 -0.006535 0.999966
vn -0.002384 -0.006403 0.999977
vn -0.002384 -0.006403 0.999977
vn 0.000000 -0.000001 1.000000
vn 0.000000 -0.000001 1.000000
vn 0.000000 -0.000001 1.000000
vn 0.000000 -0.000001 1.000000
vn 0.000000 0.000000 1.000000
vn 0.000000 0.000000 1.000000
vn 0.000000 0.000000 1.000000
vn 0.000000 0.000000 1.000000
vn 0.012664 -0.014116 0.999820
vn 0.012977 -0.014465 0.999811
vn 0.000000 0.000000 1.000000
vn 0.000000 0.000000 1.000000
vn 0.000000 0.000000 1.000000
vn 0.000000 0.000000 1.000000
vn -0.003651 -0.005568 0.999978
vn -0.003279 -0.005002 0.999982
vn 0.000000 -0.000000 1.000000
vn 0.000000 -0.000000 1.000000
vn 0.000000 0.000000 1.000000
vn 0.000000 0.000000 1.000000
vn 0.002496 0.005490 0.999982
vn 0.004882 0.010735 0.999931
vn -0.009805 -0.006527 0.999931
vn -0.009974 -0.006518 0.999929
vn -0.015193 -0.005874 0.999867
vn -0.015167 -0.005879 0.999868
vn -0.018526 -0.009624 0.999782
vn -0.018469 -0.009297 0.999786
vn 0.000000 -0.000000 1.000000
vn 0.000000 -0.000000 1.000000
vn 0.000000 -0.000001 1.000000
vn 0.000000 -0.000001 1.000000
vn 0.000000 0.000000 1.000000
vn 0.000000 0.000000 1.000000
vn 0.000000 0.000000 1.000000
vn 0.000000 0.000000 1.000000
s 1
g Cesped001 Hojas1
f 6/70/1 2/2/2 4/3/3 5/4/4
f 8/68/5 6/1/1 5/69/4 7/6/6
f 10/66/7 8/5/5 7/67/6 9/8/8
f 12/64/9 10/7/7 9/65/8 11/10/10
f 1/11/11 12/9/9 11/63/10 3/12/12
f 23/13/13 24/14/14 14/15/15 13/16/16
f 31/17/17 32/18/18 16/19/19 15/20/20
f 7/6/6 5/69/4 61/21/21 62/22/22
f 47/23/23 48/24/24 20/25/25 19/26/26
f 39/27/27 40/28/28 22/29/29 21/30/30
f 25/31/31 26/32/32 24/14/14 23/13/13
f 27/33/33 28/34/34 26/32/32 25/31/31
f 29/35/35 30/36/36 28/34/34 27/33/33
f 3/12/12 11/63/10 30/36/36 29/35/35
f 33/37/37 34/38/38 32/18/18 31/17/17
f 35/39/39 36/40/40 34/38/38 33/37/37
f 37/41/41 38/42/42 36/40/40 35/39/39
f 5/4/4 4/3/3 38/42/42 37/41/41
f 41/43/43 42/44/44 40/28/28 39/27/27
f 43/45/45 44/46/46 42/44/44 41/43/43
f 45/47/47 46/48/48 44/46/46 43/45/45
f 11/10/10 9/65/8 46/48/48 45/47/47
f 49/49/49 50/50/50 48/24/24 47/23/23
f 51/51/51 52/52/52 50/50/50 49/49/49
f 53/53/53 54/54/54 52/52/52 51/51/51
f 9/8/8 7/67/6 54/54/54 53/53/53
f 56/55/55 55/56/56 18/57/57 17/58/58
f 58/59/59 57/60/60 55/56/56 56/55/55
f 60/61/61 59/62/62 57/60/60 58/59/59
f 62/22/22 61/21/21 59/62/62 60/61/61
