# This file uses centimeters as units for non-parametric coordinates.

g default
v -1.641638 -0.075558 0.000000
v 2.417245 -0.000000 0.000000
v -3.582298 5.735589 0.000000
v 2.230848 5.109978 0.000000
v 0.981264 5.109978 0.000000
v -0.594733 0.000000 0.000000
v 2.222005 4.077538 0.000000
v 2.019009 3.235610 0.000000
v 1.563551 2.575837 0.000000
v 1.067219 1.655926 0.000000
v -2.638473 5.740945 0.000000
v -1.818190 5.474044 0.000000
v -1.184932 4.986829 0.000000
v -0.782080 4.287509 0.000000
v -0.502465 3.039228 0.000000
v -0.255475 1.674473 0.000000
v -1.842706 3.893164 0.000000
v -0.731014 1.451532 0.000000
v 0.116316 2.158413 0.000000
v 3.417257 1.234557 0.000000
v 3.439251 3.532035 0.000000
v 2.911193 4.590557 0.000000
v -3.473539 2.197640 0.000000
v -1.595100 0.576782 0.000000
v -2.567816 1.865764 0.000000
v -2.271766 0.731156 0.000000
v -2.856416 1.708487 0.000000
v 0.668114 3.568840 0.000000
v 1.259640 2.972525 0.000000
v 3.582298 2.438514 0.000000
v -1.325319 2.886773 0.000000
v 0.911256 0.000000 0.000000
v -2.747997 5.130901 0.000000
v -2.296238 4.563996 0.000000
v -3.138124 5.431230 0.000000
v -0.594733 0.000000 0.000000
v -0.594733 0.000000 0.000000
vt 0.560447 0.408307
vt 0.872600 0.429635
vt 0.827736 0.594160
vt 0.616377 0.518942
vt 0.229805 0.410230
vt 0.106064 0.448092
vt 0.085061 0.208806
vt 0.166202 0.205417
vt 0.872600 0.109601
vt 0.950840 0.173675
vt 0.896298 0.266103
vt 0.629807 0.652185
vt 0.724624 0.745243
vt 0.609494 0.810540
vt 0.503715 0.256960
vt 0.290292 0.351267
vt 0.503715 0.066744
vt 0.872583 0.241726
vt 0.287617 0.826854
vt 0.309528 0.584667
vt 0.423586 0.522543
vt 0.223261 0.838131
vt 0.071233 0.857480
vt 0.092699 0.747465
vt 0.275311 0.726081
vt 0.280613 0.601399
vt 0.106986 0.623069
vt 0.943998 0.435622
vt 0.992329 0.419904
vt 0.933397 0.556927
vt 0.745291 0.031605
vt 0.000000 1.000000
vt 0.039179 0.926533
vt 0.129825 0.933323
vt 0.514574 0.000000
vt 0.453431 0.318970
vt 0.992310 0.000000
vt 0.000077 0.000000
vt 0.280613 0.000000
vn 0.000000 0.000000 1.000000
vn 0.000000 0.000000 1.000000
vn 0.000000 0.000000 1.000000
vn 0.000000 0.000000 1.000000
vn 0.000000 0.000000 1.000000
vn 0.000000 0.000000 1.000000
vn 0.000000 0.000000 1.000000
vn 0.000000 0.000000 1.000000
vn 0.000000 0.000000 1.000000
vn 0.000000 0.000000 1.000000
vn 0.000000 0.000000 1.000000
vn 0.000000 0.000000 1.000000
vn 0.000000 0.000000 1.000000
vn 0.000000 0.000000 1.000000
vn 0.000000 0.000000 1.000000
vn 0.000000 0.000000 1.000000
vn 0.000000 0.000000 1.000000
vn 0.000000 0.000000 1.000000
vn 0.000000 0.000000 1.000000
vn 0.000000 0.000000 1.000000
vn 0.000000 0.000000 1.000000
vn 0.000000 0.000000 1.000000
vn 0.000000 0.000000 1.000000
vn 0.000000 0.000000 1.000000
vn 0.000000 0.000000 1.000000
vn 0.000000 0.000000 1.000000
vn 0.000000 0.000000 1.000000
vn 0.000000 0.000000 1.000000
vn 0.000000 0.000000 1.000000
vn 0.000000 0.000000 1.000000
vn 0.000000 0.000000 1.000000
vn 0.000000 0.000000 1.000000
vn 0.000000 0.000000 1.000000
vn 0.000000 0.000000 1.000000
vn 0.000000 0.000000 1.000000
vn 0.000000 0.000000 1.000000
vn 0.000000 0.000000 1.000000
s 1
g pPlane44
f 9/1/1 30/2/2 21/3/3 8/4/4
s 2
f 15/5/5 31/6/6 18/7/7 16/8/8
s 3
f 1/9/9 6/37/10 24/10/11 26/11/12
s 1
f 7/12/13 22/13/14 4/14/15
f 8/4/4 21/3/3 22/13/14 7/12/13
f 10/36/16 19/16/17 36/39/18 32/17/19
f 10/15/16 20/18/20 30/2/2 9/1/1
f 5/19/21 28/20/22 29/21/23
f 29/21/23 28/20/22 19/16/17 10/36/16
s 2
f 12/22/24 33/23/25 34/24/26 13/25/27
f 14/26/28 17/27/29 31/6/6 15/5/5
f 16/8/8 18/7/7 37/38/30
s 3
f 27/28/31 25/29/32 23/30/33
f 26/11/12 24/10/11 25/29/32 27/28/31
s 1
f 10/15/16 32/35/19 2/31/34 20/18/20
s 2
f 13/25/27 34/24/26 17/27/29 14/26/28
f 3/32/35 35/33/36 11/34/37
f 11/34/37 35/33/36 33/23/25 12/22/24
