# This file uses centimeters as units for non-parametric coordinates.

mtllib Roca34_Retopo_UVSoftenHardenV02.mtl
g default
v -3.355713 4.260936 2.364292
v 0.682171 5.708259 2.406859
v 3.883402 4.584684 2.261202
v 2.826556 4.472819 2.629245
v 0.663569 5.386080 2.614574
v -2.961113 4.200602 2.614128
v -3.356620 4.104022 2.421074
v -2.573909 4.498748 2.530446
v -2.454884 4.377977 2.613578
v 3.701763 4.491505 2.516984
v 2.942666 4.719121 2.472182
v 3.199750 4.852204 2.211181
v 2.840481 0.084004 2.341007
v -3.682569 0.367609 2.560657
v -3.084674 1.340502 2.563491
v -0.526775 0.188819 2.612308
v 2.953846 1.108731 2.498922
v 3.511557 2.420186 2.456686
v 3.569867 2.628210 2.636337
v 2.756108 1.191598 2.631505
v 2.387111 0.067727 2.565409
v -3.439867 0.084756 2.275261
v -0.493934 0.090289 2.540018
v -3.299118 1.064114 2.560220
v 2.641701 0.453351 2.606327
v 0.014478 1.141141 2.665049
v -3.276371 3.745043 2.530358
v -3.260581 3.189131 2.549468
v -3.406532 0.345578 2.591943
v -3.077216 1.056568 2.581529
v -2.941851 1.328578 2.580994
v -2.858664 2.137942 2.597839
v -3.175294 3.221144 2.640218
v -3.102715 2.168808 2.536229
v -3.200913 3.851543 2.599560
v -3.253202 4.079894 2.535758
v -3.252116 4.297848 2.511607
v 0.224432 2.306075 2.644589
v 2.012111 2.240487 2.642410
v 1.513156 0.877305 2.635132
v 1.129538 0.065152 2.589789
v 0.279059 3.338484 2.644766
v 2.271760 3.202951 2.644377
v -2.260702 3.328016 2.654087
v -1.894032 2.220854 2.681067
v -1.823486 1.164094 2.634120
v -1.976423 0.274752 2.636565
v -3.064032 0.142605 2.535364
v -2.985104 0.032078 2.375277
v -2.009901 0.125297 2.590615
v -1.995701 0.031402 2.442755
v 4.016502 4.149702 2.601843
v 3.873914 3.594805 2.638111
v 3.790803 3.487839 2.232286
v 3.987745 4.493281 2.250976
v -2.453632 3.943738 2.631151
v 0.353477 4.308128 2.643655
v 2.627678 4.034017 2.641008
v 3.960609 3.903238 2.637174
v 3.922231 3.985023 2.278622
v 2.836257 0.424053 2.470532
v -3.475107 4.237874 -2.175876
v 1.915936 6.256283 -2.357025
v -2.632641 4.557393 2.349924
v -2.211218 4.719778 -2.440997
v 0.919639 6.151367 0.072263
v -2.478802 4.726655 -0.160525
v -3.425649 4.277546 -0.169299
v -3.497139 3.878402 -2.639574
v -2.856307 3.942832 -2.685017
v -1.781176 4.514861 -2.628691
v 0.445295 5.270651 -2.633320
v 1.883467 6.026163 -2.609737
v -0.977986 5.088202 2.498588
v -0.964869 5.146591 2.409768
v -0.695875 5.571746 -0.009198
v 0.708056 5.806741 -2.462932
v -3.155632 4.321168 -2.480511
v -0.958796 4.861541 2.613790
v 3.098616 5.122053 -2.338125
v 3.288193 5.203758 0.071970
v 3.524295 4.683450 0.122696
v 3.164171 5.245399 -0.542893
v 3.225175 5.104411 -0.956798
v 3.047307 5.279766 -2.019561
v 2.512047 5.638344 -2.489120
v 2.388288 5.937606 -2.311688
v 1.852678 5.828945 -0.025182
v 1.116598 5.589063 2.359952
v 2.964012 5.344956 0.053371
v 2.939974 5.371214 -0.600538
v 2.988411 5.344499 -1.142154
v 3.392128 4.787008 -0.661332
v 3.357863 4.816089 -1.080490
v 2.042745 5.880643 -0.990172
v 1.396879 6.177761 -1.116842
v 0.537352 6.155840 -0.041009
v 1.140477 6.197735 -1.246270
v 1.777245 6.222983 -2.371775
v 0.263449 5.861124 1.107096
v 0.309991 5.625374 2.414373
v 0.787326 5.934594 1.239293
v 1.468215 5.747694 1.124216
v 3.116337 5.092489 1.166130
v 3.563967 4.896306 1.179801
v 3.767014 4.626622 1.242769
v -3.193325 2.776017 -2.414049
v -2.916650 1.424983 -1.976830
v -3.232877 1.143556 -1.788698
v -3.910228 0.211316 -1.921166
v -3.803406 0.162957 -0.134203
v -3.736536 0.295585 1.892175
v -3.208208 1.422197 -0.455895
v -3.310265 1.192173 -0.480346
v -3.067718 1.434455 -1.331763
v -3.248503 1.148150 -1.156691
v -3.807793 0.237306 -0.807255
v -3.416257 2.970191 -0.361161
v -3.530710 3.271216 -1.779562
v -3.281761 3.077412 1.837971
v -3.226434 2.206069 1.844676
v -3.289309 1.446047 1.824483
v -3.397107 1.118356 1.851419
v -3.497667 3.991514 -0.140796
v -3.346611 2.314856 -0.375356
v -3.577524 0.080644 1.812002
v -3.554535 -0.045066 -0.138913
v -3.536232 -0.062710 -0.865201
v -3.248423 0.050812 -1.892158
v 4.140097 0.085110 -2.611997
v 3.304202 3.736645 -2.448182
v 3.225742 2.600146 -0.360052
v 3.209130 2.194336 -0.232838
v 3.198439 2.347250 0.372691
v 3.159769 1.840375 0.395389
v 3.489382 0.051389 0.543808
v 3.865371 0.041474 -0.727743
v 3.653854 2.337825 -2.527309
v 3.494978 3.549245 0.314433
v 3.458642 3.709788 -0.522256
v 3.655346 3.512482 1.355343
v 2.414453 3.996005 -2.533564
v 0.903936 3.954005 -2.617854
v -1.573476 3.488650 -2.568597
v -2.528340 3.027665 -2.528033
v -0.880832 0.067330 -2.050251
v -2.196657 0.103162 -1.891657
v -2.316063 1.602259 -2.041572
v -1.192797 1.701740 -2.101596
v 1.089384 2.024721 -2.459677
v 1.350745 0.107751 -2.437943
v 2.697666 2.177211 -2.578650
v 2.923097 0.050837 -2.600217
v -0.339205 0.030997 -0.620481
v 1.744620 0.026972 -0.626148
v 1.354876 0.026859 1.894800
v -2.172541 0.029029 -0.815808
v -2.327741 0.027573 1.809089
v -0.267674 0.032187 1.845946
vt 0.439092 0.827274
vt 0.461616 0.744425
vt 0.496269 0.728383
vt 0.438491 0.840698
vt 0.437852 0.816799
vt 0.442620 0.752507
vt 0.436074 0.788575
vt 0.430149 0.757498
vt 0.589668 0.689348
vt 0.608896 0.735316
vt 0.438962 0.950144
vt 0.490246 0.645093
vt 0.529524 0.639475
vt 0.535361 0.714943
vt 0.436536 0.882839
vt 0.574466 0.626362
vt 0.563142 0.549276
vt 0.519907 0.550774
vt 0.471858 0.541022
vt 0.426269 0.462782
vt 0.435057 0.416462
vt 0.432394 0.368831
vt 0.424850 0.334226
vt 0.598165 0.538825
vt 0.433713 0.382031
vt 0.610021 0.599539
vt 0.424969 0.313224
vt 0.432623 0.267517
vt 0.434052 0.204737
vt 0.418098 0.507919
vt 0.419936 0.497924
vt 0.427667 0.519057
vt 0.426604 0.540528
vt 0.419276 0.536892
vt 0.444833 0.537010
vt 0.454396 0.651091
vt 0.422725 0.601912
vt 0.423445 0.488730
vt 0.416626 0.666520
vt 0.285142 0.784461
vt 0.238391 0.770170
vt 0.277029 0.771045
vt 0.302666 0.778633
vt 0.299712 0.768855
vt 0.284673 0.728809
vt 0.235254 0.735130
vt 0.238138 0.716447
vt 0.278955 0.700688
vt 0.408646 0.602978
vt 0.410891 0.534768
vt 0.412772 0.602411
vt 0.403718 0.654369
vt 0.403194 0.668070
vt 0.320036 0.682272
vt 0.315077 0.667512
vt 0.355914 0.654056
vt 0.361518 0.675005
vt 0.319737 0.721150
vt 0.404747 0.684298
vt 0.361076 0.703627
vt 0.326504 0.768067
vt 0.417827 0.769015
vt 0.373075 0.771233
vt 0.328400 0.781565
vt 0.423841 0.797610
vt 0.375841 0.790586
vt 0.424760 0.803303
vt 0.312918 0.614093
vt 0.304665 0.538351
vt 0.209186 0.554231
vt 0.225720 0.673147
vt 0.273793 0.690485
vt 0.237350 0.711822
vt 0.424886 0.417889
vt 0.427796 0.381826
vt 0.423978 0.367234
vt 0.416358 0.338677
vt 0.394819 0.387832
vt 0.395125 0.373942
vt 0.421263 0.461226
vt 0.304339 0.497825
vt 0.216799 0.497440
vt 0.204103 0.513821
vt 0.419490 0.483891
vt 0.411124 0.503743
vt 0.413869 0.497674
vt 0.305989 0.486297
vt 0.392459 0.454040
vt 0.395016 0.418656
vt 0.299144 0.446089
vt 0.237357 0.456739
vt 0.300333 0.420233
vt 0.262112 0.380862
vt 0.299920 0.384514
vt 0.300194 0.374558
vt 0.273152 0.370403
vt 0.410276 0.324145
vt 0.248387 0.360739
vt 0.261779 0.327132
vt 0.294468 0.330358
vt 0.318217 0.329621
vt 0.393734 0.336596
vt 0.428734 0.950770
vt 0.426473 0.979056
vt 0.429133 0.892001
vt 0.341320 0.898657
vt 0.298090 0.798647
vt 0.332034 0.803480
vt 0.380485 0.803393
vt 0.421544 0.846472
vt 0.341569 0.919192
vt 0.384596 0.848176
vt 0.339983 0.848588
vt 0.424749 0.824957
vt 0.187162 0.497133
vt 0.134248 0.503969
vt 0.182345 0.523530
vt 0.194903 0.570523
vt 0.072504 0.510984
vt 0.017747 0.492418
vt 0.140154 0.532525
vt 0.076767 0.536143
vt 0.150931 0.573782
vt 0.074731 0.583353
vt 0.206352 0.661304
vt 0.155498 0.678147
vt 0.080003 0.682559
vt 0.226289 0.776521
vt 0.224081 0.740590
vt 0.227543 0.715801
vt 0.160567 0.742478
vt 0.223619 0.835806
vt 0.218726 0.894354
vt 0.087540 0.751003
vt 0.244555 0.208329
vt 0.234779 0.115856
vt 0.624261 0.723622
vt 0.434382 0.067776
vt 0.621617 0.670395
vt 0.362398 0.036223
vt 0.311238 0.017668
vt 0.235115 0.001992
vt 0.315527 0.904044
vt 0.232501 0.051413
vt 0.412340 0.126652
vt 0.425617 0.265780
vt 0.417926 0.307171
vt 0.391852 0.325567
vt 0.398859 0.274975
vt 0.318459 0.316316
vt 0.279997 0.796450
vt 0.310385 0.887547
vt 0.304331 0.841683
vt 0.291299 0.313687
vt 0.248546 0.264155
vt 0.406393 0.192467
vt 0.292402 0.260560
vt 0.304551 0.187497
vt 0.309875 0.103713
vt 0.597852 0.493574
vt 0.436092 0.979730
vt 0.450076 0.801959
vt 0.440008 0.506663
vt 0.467829 0.503492
vt 0.428481 0.506065
vt 0.587271 0.480784
vt 0.516569 0.510974
vt 0.549765 0.504249
vt 0.560174 0.497556
vt 0.578691 0.742780
vt 0.517945 0.781556
vt 0.475585 0.795816
vt 0.461547 0.799616
vt 0.216910 0.767305
vt 0.154672 0.778186
vt 0.342080 0.993162
vt 0.287343 0.992963
vt 0.209196 0.987321
vt 0.095467 0.790109
vt 0.420862 0.992908
vt 0.440742 0.998008
vt 0.247578 0.309755
vt 0.234803 0.374668
vt 0.211728 0.431233
vt 0.199633 0.480246
vt 0.604271 0.536629
vt 0.007105 0.592048
vt 0.014645 0.535629
vt 0.001246 0.758446
vt 0.003116 0.691002
vt 0.003257 0.808344
vt 0.615112 0.600398
vt 0.440092 0.138110
vt 0.442298 0.086856
vn 0.011399 0.026112 0.999594
vn 0.004308 0.016369 0.999857
vn 0.002126 -0.000241 0.999998
vn 0.003914 -0.000179 0.999992
vn 0.086308 0.175309 0.980723
vn 0.040818 0.122901 0.991579
vn 0.212799 0.594848 0.775160
vn 0.218285 0.581389 0.783797
vn 0.008790 -0.025568 0.999635
vn 0.009914 -0.061775 0.998041
vn 0.005929 -0.010051 0.999932
vn 0.002625 0.008184 0.999963
vn 0.006029 0.002004 0.999980
vn 0.004878 -0.002448 0.999985
vn 0.004860 -0.004411 0.999979
vn 0.005235 -0.021650 0.999752
vn -0.015845 -0.014375 0.999771
vn -0.011066 -0.005392 0.999924
vn -0.009618 0.009699 0.999907
vn -0.043596 0.001044 0.999049
vn -0.057579 -0.027773 0.997955
vn -0.036973 0.019348 0.999129
vn -0.037692 -0.009083 0.999248
vn -0.018446 -0.058891 0.998094
vn -0.062899 -0.024226 0.997726
vn 0.000809 -0.080507 0.996754
vn -0.049360 -0.318663 0.946582
vn -0.026740 -0.365846 0.930291
vn -0.010926 -0.502201 0.864682
vn -0.387362 0.770765 0.505838
vn -0.137858 0.045437 0.989409
vn -0.126454 0.200355 0.971528
vn -0.043450 0.135277 0.989855
vn -0.245527 0.695846 0.674918
vn -0.010960 0.026861 0.999579
vn -0.000965 0.016974 0.999856
vn -0.045497 0.145177 0.988359
vn -0.051232 0.043047 0.997759
vn 0.024907 0.180046 0.983343
vn 0.836236 0.545822 -0.052805
vn 0.706697 0.707508 -0.003354
vn 0.594095 0.801365 0.069753
vn 0.761878 0.643824 -0.070941
vn 0.458249 0.887243 0.052984
vn 0.457867 0.879108 0.132392
vn 0.560360 0.828189 0.009996
vn 0.393388 0.917451 0.059415
vn 0.288544 0.948412 0.131364
vn -0.385449 0.916559 0.106534
vn -0.391290 0.917286 0.074023
vn -0.201904 0.597091 0.776348
vn -0.263872 0.861010 0.434781
vn 0.054837 0.961757 0.268359
vn 0.183752 0.970136 0.158337
vn -0.362035 0.931775 -0.026941
vn -0.357477 0.923587 0.138557
vn 0.113145 0.973880 0.196865
vn 0.369717 0.916453 0.153048
vn 0.317497 0.863943 0.390895
vn 0.341231 0.920146 0.192074
vn 0.390238 0.910121 0.139267
vn 0.337579 0.889633 0.307562
vn 0.360314 0.914421 0.184415
vn 0.698807 0.715280 -0.006494
vn 0.498100 0.834261 0.236443
vn 0.606842 0.793035 0.053282
vn 0.958253 0.285354 -0.018022
vn -0.390135 0.920575 -0.018353
vn -0.387408 0.921828 -0.012165
vn -0.371485 0.906686 -0.199800
vn -0.368553 0.890401 -0.267125
vn -0.346853 0.928657 -0.131487
vn -0.235956 0.877863 -0.416752
vn -0.180281 0.023139 0.983343
vn -0.303626 -0.048149 0.951574
vn -0.924244 -0.053561 0.378026
vn -0.866282 0.154990 0.474903
vn -0.101733 0.059455 0.993034
vn -0.818606 0.410186 0.402035
vn -0.914732 0.186550 0.358419
vn -0.191570 -0.378297 0.905645
vn -0.994754 0.086297 0.054925
vn -0.913065 0.407362 0.019205
vn -0.511723 -0.080686 0.855354
vn -0.946517 -0.098013 0.307408
vn -0.513372 0.858165 0.001579
vn -0.740774 0.667664 -0.074019
vn -0.297058 0.620935 -0.725393
vn -0.947638 -0.083666 0.308193
vn -0.718966 0.027558 0.694499
vn -0.589571 0.806554 0.043329
vn -0.995983 -0.039681 0.080273
vn -0.744674 0.070908 0.663651
vn -0.998601 -0.025789 0.046164
vn -0.993166 -0.095724 0.066768
vn -0.996082 -0.059017 0.065869
vn -0.994186 -0.102419 0.033232
vn -0.990385 -0.125736 -0.057682
vn -0.992453 -0.122385 0.007636
vn -0.984022 -0.111830 -0.138548
vn -0.996838 0.071740 -0.034173
vn -0.909003 0.415984 -0.025881
vn -0.850007 0.526553 -0.015145
vn -0.127910 -0.814376 0.566066
vn -0.266598 -0.955066 0.129520
vn -0.715217 0.487462 -0.500845
vn -0.924288 0.055377 -0.377656
vn -0.992091 0.123040 -0.024840
vn -0.980151 0.198191 -0.004990
vn -0.975760 0.216832 0.029602
vn 0.963141 -0.245006 0.111045
vn 0.652609 -0.268610 0.708484
vn 0.498085 -0.233740 0.835031
vn 0.951740 0.054126 0.302096
vn 0.947138 -0.310788 0.079624
vn 0.940293 -0.338828 -0.032310
vn 0.971225 -0.228815 -0.066079
vn 0.980659 0.170246 -0.096563
vn 0.983989 0.106102 -0.143204
vn 0.981984 0.071794 -0.174794
vn 0.959357 -0.239306 -0.149555
vn 0.957094 -0.269687 -0.106022
vn 0.976234 0.091292 0.196554
vn 0.965352 -0.203513 -0.163337
vn 0.981480 -0.137483 -0.133400
vn 0.965825 -0.171576 -0.194276
vn 0.961368 -0.222186 -0.162496
vn 0.966453 -0.164126 -0.197563
vn -0.974688 -0.162936 -0.153084
vn -0.941292 -0.254561 -0.221738
vn -0.050547 0.013084 -0.998636
vn -0.158645 -0.003787 -0.987329
vn -0.043228 0.103411 -0.993699
vn -0.912505 -0.177085 -0.368749
vn -0.107849 -0.933236 -0.342695
vn 0.010377 -0.235772 -0.971753
vn -0.041994 -0.277529 -0.959799
vn -0.029131 -0.186833 -0.981960
vn -0.027076 -0.168680 -0.985299
vn -0.013733 -0.139865 -0.990075
vn -0.082880 -0.131735 -0.987814
vn -0.023979 0.084375 -0.996146
vn -0.011099 -0.075526 -0.997082
vn -0.081873 -0.076735 -0.993684
vn 0.265628 0.134142 -0.954698
vn 0.356161 0.218748 -0.908460
vn 0.049041 0.115008 -0.992153
vn 0.051416 -0.000424 -0.998677
vn 0.109194 0.054517 -0.992524
vn 0.037786 0.036480 -0.998620
vn -0.015990 0.002223 -0.999870
vn -0.139899 -0.054045 -0.988690
vn -0.124704 -0.028874 -0.991774
vn 0.450086 -0.348403 0.822215
vn 0.937980 0.129651 0.321534
vn 0.008994 -0.065166 0.997834
vn 0.008722 -0.076452 0.997035
vn 0.945164 0.181172 0.271737
vn 0.955662 0.223037 0.192263
vn 0.958379 0.225497 0.175102
vn 0.961459 0.213366 0.173413
vn 0.962680 0.199730 0.182635
vn 0.015790 0.026819 -0.999516
vn -0.039939 0.006709 -0.999180
vn 0.006418 -0.999898 0.012746
vn 0.018945 -0.999723 0.013960
vn 0.016231 -0.999223 0.035910
vn -0.003316 -0.998373 0.056921
vn 0.008522 -0.992821 0.119306
vn 0.004922 -0.998440 0.055612
vn -0.025334 -0.840556 0.541132
vn -0.054897 -0.990129 0.128960
vn -0.152807 -0.987627 0.035267
vn 0.006023 -0.999898 0.012987
vn -0.104192 -0.994153 0.028340
vn 0.982828 0.148637 -0.109348
vn 0.984599 0.131903 -0.114743
vn 0.996443 0.028212 0.079408
vn 0.993210 -0.065305 -0.096278
vn 0.994414 0.105546 -0.000347
vn -0.147661 -0.987436 -0.056264
vn -0.065648 -0.077088 -0.994861
vn -0.027720 -0.079307 -0.996465
vn -0.000323 -0.999939 0.011069
vn 0.009910 -0.999872 -0.012546
vn 0.000353 -0.999899 -0.014197
vn 0.017041 -0.998237 -0.056856
vn 0.016895 -0.999789 0.011718
vn 0.004767 -0.999944 -0.009469
vn 0.005134 -0.999857 -0.016126
vn 0.014198 -0.999826 -0.012144
vn 0.012639 -0.999895 -0.007136
vn -0.001383 -0.999227 -0.039299
vn -0.007044 -0.999287 -0.037101
s 1
g Roca34_Retopo_V02:Mesh
usemtl initialShadingGroup
f 59/173/1 58/2/2 43/3/3 53/172/4
f 52/162/5 4/6/6 58/2/2 59/173/1
f 10/7/7 11/8/8 4/6/6 52/162/5
f 40/9/9 25/10/10 20/170/11
f 43/3/3 42/12/12 38/13/13 39/14/14
f 19/171/15 53/172/4 43/3/3 39/14/14
f 40/9/9 39/14/14 38/13/13 26/16/16
f 40/9/9 20/170/11 19/171/15 39/14/14
f 46/17/17 26/16/16 38/13/13 45/18/18
f 44/19/19 33/164/20 32/167/21 45/18/18
f 45/18/18 38/13/13 42/12/12 44/19/19
f 46/17/17 30/169/22 29/166/23 47/24/24
f 31/168/25 30/169/22 46/17/17
f 45/18/18 32/167/21 31/168/25 46/17/17
f 47/24/24 16/26/26 26/16/16 46/17/17
f 47/24/24 29/166/23 48/160/27 50/186/28
f 23/192/29 16/26/26 47/24/24 50/186/28
f 37/30/30 36/165/31 6/32/32
f 9/33/33 8/34/34 37/30/30 6/32/32
f 56/35/35 9/33/33 6/32/32
f 57/36/36 79/37/37 9/33/33 56/35/35
f 56/35/35 6/32/32 36/165/31 35/163/38
f 56/35/35 35/163/38 33/164/20 44/19/19
f 56/35/35 44/19/19 42/12/12 57/36/36
f 57/36/36 42/12/12 43/3/3 58/2/2
f 57/36/36 58/2/2 4/6/6 5/39/39
f 84/40/40 85/41/41 92/42/42
f 83/43/43 84/40/40 92/42/42 91/44/44
f 91/44/44 92/42/42 95/45/45
f 92/42/42 85/41/41 87/46/46 95/45/45
f 95/45/45 87/46/46 63/47/47 96/48/48
f 75/49/49 64/50/50 8/34/34 74/51/51
f 5/39/39 4/6/6 11/8/8
f 5/39/39 79/37/37 57/36/36
f 74/51/51 8/34/34 9/33/33 79/37/37
f 74/51/51 79/37/37 5/39/39 101/52/52
f 101/52/52 5/39/39 2/53/53
f 66/54/54 97/55/55 100/56/56 102/57/57
f 95/45/45 96/48/48 66/54/54 88/58/58
f 89/59/59 2/53/53 5/39/39
f 103/60/60 88/58/58 66/54/54 102/57/57
f 103/60/60 102/57/57 2/53/53 89/59/59
f 91/44/44 95/45/45 88/58/58 90/61/61
f 89/59/59 5/39/39 11/8/8 12/62/62
f 103/60/60 89/59/59 12/62/62 104/63/63
f 90/61/61 88/58/58 103/60/60 104/63/63
f 81/64/64 83/43/43 91/44/44 90/61/61
f 12/62/62 11/8/8 10/7/7 3/65/65
f 104/63/63 12/62/62 3/65/65 105/66/66
f 81/64/64 90/61/61 104/63/63 105/66/66
f 55/67/67 3/65/65 10/7/7 52/162/5
f 75/49/49 74/51/51 101/52/52
f 76/68/68 67/69/69 64/50/50 75/49/49
f 100/56/56 97/55/55 76/68/68 75/49/49
f 75/49/49 101/52/52 100/56/56
f 100/56/56 101/52/52 2/53/53 102/57/57
f 65/70/70 67/69/69 76/68/68 77/71/71
f 77/71/71 76/68/68 97/55/55 98/72/72
f 98/72/72 97/55/55 66/54/54 96/48/48
f 98/72/72 96/48/48 63/47/47 99/73/73
f 77/71/71 98/72/72 99/73/73
f 31/25/74 32/21/75 34/74/76 15/75/77
f 30/22/78 31/25/74 15/75/77 24/76/79
f 24/76/79 14/77/80 29/23/81 30/22/78
f 24/76/79 15/75/77 122/78/82 123/79/83
f 34/74/76 32/21/75 33/20/84 28/80/85
f 68/81/86 67/69/69 65/70/70 62/82/87
f 62/82/87 65/70/70 78/83/88
f 27/84/89 28/80/85 33/20/84 35/38/90
f 1/85/91 7/86/92 36/31/93 37/30/30
f 68/81/86 124/87/94 7/86/92 1/85/91
f 1/85/91 37/30/30 8/34/34 64/50/50
f 64/50/50 67/69/69 68/81/86 1/85/91
f 7/86/92 27/84/89 35/38/90 36/31/93
f 120/88/95 27/84/89 7/86/92
f 120/88/95 28/80/85 27/84/89
f 124/87/94 68/81/86 62/82/87
f 34/74/76 28/80/85 120/88/95 121/89/96
f 122/78/82 15/75/77 34/74/76 121/89/96
f 118/90/97 120/88/95 7/86/92 124/87/94
f 124/87/94 62/82/87 119/91/98 118/90/97
f 125/92/99 118/90/97 119/91/98 115/93/100
f 125/92/99 121/89/96 120/88/95 118/90/97
f 125/92/99 115/93/100 113/94/101
f 122/78/82 121/89/96 125/92/99 113/94/101
f 114/95/102 123/79/83 122/78/82 113/94/101
f 113/94/101 115/93/100 116/96/103 114/95/102
f 48/27/104 29/23/81 14/77/80 22/97/105
f 116/96/103 109/98/106 110/99/107 117/100/108
f 114/95/102 116/96/103 117/100/108 111/101/109
f 123/79/83 114/95/102 111/101/109 112/102/110
f 112/102/110 14/77/80 24/76/79 123/79/83
f 17/103/111 20/11/112 25/161/113 61/104/114
f 19/15/115 20/11/112 17/103/111 18/105/116
f 18/105/116 17/103/111 134/106/117
f 93/107/118 83/43/43 81/64/64 82/108/119
f 82/108/119 81/64/64 105/66/66 106/109/120
f 54/110/121 53/4/122 19/15/115 18/105/116
f 134/106/117 17/103/111 61/104/114 135/111/123
f 141/112/124 54/110/121 18/105/116 134/106/117
f 134/106/117 139/113/125 141/112/124
f 55/67/67 52/5/126 59/1/127 60/114/128
f 60/114/128 59/1/127 53/4/122 54/110/121
f 60/114/128 54/110/121 141/112/124 106/109/120
f 106/109/120 55/67/67 60/114/128
f 105/66/66 3/65/65 55/67/67 106/109/120
f 141/112/124 139/113/125 82/108/119 106/109/120
f 119/91/98 62/82/87 69/185/129 107/184/130
f 70/117/131 69/115/132 62/82/87 78/83/88
f 71/118/133 70/117/131 78/83/88 65/70/70
f 115/93/100 119/91/98 107/184/130 108/183/134
f 129/182/135 110/99/107 109/98/106 108/183/134
f 108/183/134 109/98/106 116/96/103 115/93/100
f 145/121/136 107/116/137 69/115/132 70/117/131
f 148/122/138 108/119/139 107/116/137 145/121/136
f 144/123/140 145/121/136 70/117/131 71/118/133
f 148/122/138 145/121/136 144/123/140 149/124/141
f 72/125/142 71/118/133 65/70/70 77/71/71
f 143/126/143 144/123/140 71/118/133 72/125/142
f 150/127/144 149/124/141 144/123/140 143/126/143
f 87/46/46 85/41/41 80/174/145 86/129/146
f 73/130/147 72/125/142 77/71/71 99/73/73
f 142/131/148 143/126/143 72/125/142 73/130/147
f 99/73/73 63/47/47 73/130/147
f 73/130/147 63/47/47 87/46/46 86/129/146
f 73/130/147 86/129/146 142/131/148
f 142/131/148 131/175/149 138/179/150 152/134/151
f 152/134/151 150/127/144 143/126/143 142/131/148
f 146/187/152 149/124/141 150/127/144 151/190/153
f 61/104/114 25/161/113 21/181/154 13/180/155
f 40/9/9 26/16/16 16/26/26 41/139/156
f 21/137/157 25/10/10 40/9/9 41/139/156
f 136/176/158 135/111/123 61/104/114 13/180/155
f 137/177/159 130/178/160 138/133/161 133/143/162
f 133/143/162 135/111/123 136/176/158 137/177/159
f 152/134/151 138/179/150 130/191/163 153/189/164
f 151/190/153 150/127/144 152/134/151 153/189/164
f 156/145/165 13/138/166 21/194/167 41/193/168
f 41/139/156 16/26/26 23/192/29
f 51/146/169 23/29/170 50/28/171
f 48/27/104 22/97/105 49/147/172
f 49/147/172 22/97/105 126/148/173 158/149/174
f 51/146/169 50/28/171 48/27/104 49/147/172
f 158/149/174 51/146/169 49/147/172
f 126/148/173 22/97/105 14/77/80 112/102/110
f 112/102/110 111/101/109 127/150/175 126/148/173
f 94/151/176 80/128/177 85/41/41 84/40/40
f 94/151/176 84/40/40 83/43/43 93/107/118
f 132/152/178 134/106/117 135/111/123 133/143/162
f 140/153/179 93/107/118 82/108/119 139/113/125
f 142/131/148 86/129/146 80/174/145 131/175/149
f 131/132/180 80/128/177 94/151/176 140/153/179
f 140/153/179 132/152/178 131/132/180
f 131/132/180 132/152/178 133/143/162 138/133/161
f 139/113/125 134/106/117 132/152/178 140/153/179
f 94/151/176 93/107/118 140/153/179
f 128/154/181 127/150/175 111/101/109 117/100/108
f 117/100/108 110/99/107 129/182/135 128/154/181
f 147/188/182 129/120/183 108/119/139 148/122/138
f 148/122/138 149/124/141 146/187/152 147/188/182
f 159/156/184 158/149/174 157/157/185 154/158/186
f 158/149/174 126/148/173 127/150/175 157/157/185
f 157/157/185 127/150/175 128/154/181
f 128/154/181 129/182/135 147/155/187 157/157/185
f 23/29/170 51/146/169 158/149/174 159/156/184
f 159/156/184 156/145/165 41/193/168 23/29/170
f 136/140/188 13/138/166 156/145/165 155/159/189
f 153/144/190 130/142/191 137/141/192 155/159/189
f 157/157/185 147/155/187 146/135/193 154/158/186
f 154/158/186 146/135/193 151/136/194 155/159/189
f 154/158/186 155/159/189 156/145/165 159/156/184
f 155/159/189 151/136/194 153/144/190
f 137/141/192 136/140/188 155/159/189
